<?xml version="1.0" standalone="no"?>
<!DOCTYPE svg PUBLIC "-//W3C//DTD SVG 20010904//EN"
 "http://www.w3.org/TR/2001/REC-SVG-20010904/DTD/svg10.dtd">
<svg version="1.0" xmlns="http://www.w3.org/2000/svg"
 width="1024.000000pt" height="1024.000000pt" viewBox="0 0 1024.000000 1024.000000"
 preserveAspectRatio="xMidYMid meet">

<g transform="translate(0.000000,1024.000000) scale(0.100000,-0.100000)"
fill="#000000" stroke="none">
<path d="M5010 8953 c-837 -19 -1640 -301 -2314 -811 -892 -676 -1457 -1682
-1562 -2782 -21 -212 -15 -683 10 -870 167 -1241 861 -2282 1946 -2920 497
-293 1048 -470 1650 -532 180 -18 609 -16 797 5 1110 124 2086 667 2768 1542
641 822 927 1915 775 2965 -188 1292 -1036 2441 -2225 3011 -585 280 -1180
407 -1845 392z m560 -268 c1030 -125 1980 -685 2596 -1532 329 -452 563 -1003
654 -1542 50 -293 66 -682 40 -951 -70 -739 -335 -1401 -790 -1975 -130 -163
-415 -449 -582 -583 -503 -401 -1096 -669 -1723 -777 -260 -44 -337 -50 -660
-50 -345 1 -446 10 -741 70 -1322 269 -2407 1225 -2818 2482 -80 245 -134 495
-168 773 -20 162 -17 631 5 810 103 831 477 1602 1061 2185 648 647 1467 1027
2376 1105 154 13 591 4 750 -15z"/>
<path d="M4730 7534 c-297 -63 -516 -259 -552 -492 -26 -168 58 -353 211 -463
61 -43 61 -45 57 -85 -7 -58 -42 -146 -81 -204 -30 -44 -31 -50 -15 -50 55 0
204 72 303 148 l57 43 70 -10 c460 -72 890 204 890 571 0 252 -235 480 -558
544 -92 18 -296 17 -382 -2z"/>
<path d="M5828 6852 c-30 -149 -114 -278 -250 -387 -83 -67 -238 -144 -348
-175 -110 -30 -287 -46 -388 -34 -46 6 -85 7 -88 3 -7 -12 53 -75 118 -124
138 -104 299 -155 483 -154 61 0 130 4 154 8 44 9 46 8 105 -41 60 -48 233
-140 290 -153 l29 -6 -22 33 c-38 57 -72 135 -86 200 l-13 63 26 20 c90 68
155 143 195 224 l42 84 0 117 c0 114 -1 117 -37 191 -21 40 -48 85 -61 99 -30
33 -118 110 -126 110 -4 0 -14 -35 -23 -78z"/>
<path d="M3430 6770 c-134 -28 -263 -132 -324 -260 -29 -61 -31 -72 -31 -185
0 -114 2 -123 32 -188 136 -286 515 -354 738 -132 197 197 166 538 -63 692
-35 24 -87 50 -115 58 -66 20 -179 27 -237 15z"/>
<path d="M6610 6766 c-224 -48 -385 -277 -350 -498 18 -117 58 -198 136 -272
177 -170 461 -167 634 8 100 101 134 191 128 341 -3 87 -8 109 -35 168 -44 92
-119 169 -207 212 -109 54 -196 65 -306 41z"/>
<path d="M2756 5998 c-21 -33 -81 -200 -115 -319 -71 -248 -96 -441 -95 -734
1 -173 5 -251 23 -364 85 -553 322 -1030 701 -1412 378 -380 869 -632 1392
-713 123 -19 260 -29 273 -19 19 15 312 368 324 391 27 51 -24 122 -88 122
-38 0 -67 -25 -202 -176 -111 -125 -137 -142 -167 -112 -25 25 -8 54 112 189
69 76 132 149 141 163 23 34 12 79 -27 111 -59 49 -86 35 -231 -125 -148 -163
-151 -166 -182 -152 -37 17 -31 48 23 110 208 241 202 233 202 274 0 53 -35
88 -88 88 -35 0 -45 -7 -108 -72 -38 -40 -98 -106 -133 -145 -52 -59 -69 -73
-93 -73 -21 0 -32 7 -40 25 -15 34 -5 53 81 151 39 45 71 88 71 96 0 9 -27 32
-59 52 -148 91 -242 274 -227 438 3 37 17 98 31 136 14 38 25 76 25 85 0 9
-40 34 -102 65 -266 130 -410 317 -469 607 -18 89 -15 275 6 375 36 175 113
343 232 502 40 54 73 103 73 108 0 19 -38 10 -123 -30 -405 -190 -821 -70
-1070 308 -26 39 -54 72 -62 72 -8 0 -21 -10 -29 -22z"/>
<path d="M7377 5938 c-240 -359 -647 -483 -1029 -313 -136 60 -137 60 -149 48
-8 -8 5 -32 49 -90 196 -256 285 -519 269 -787 -24 -383 -247 -660 -602 -747
-116 -28 -273 -34 -535 -19 -277 15 -290 13 -384 -69 -255 -223 -420 -378
-432 -408 -12 -28 -12 -38 1 -68 27 -65 112 -82 201 -41 55 25 264 162 354
231 103 79 135 88 206 56 43 -20 613 -371 776 -478 106 -70 176 -140 213 -213
35 -69 57 -155 60 -234 1 -39 3 -72 4 -74 3 -7 96 47 186 109 289 196 530 440
717 723 398 604 511 1393 303 2117 -48 166 -115 333 -136 337 -11 2 -35 -25
-72 -80z"/>
<path d="M4795 5776 c-145 -34 -256 -96 -344 -191 -158 -174 -152 -414 16
-583 32 -32 69 -66 82 -75 l24 -16 -17 -65 c-10 -36 -33 -91 -52 -122 -19 -32
-32 -59 -30 -61 16 -16 203 76 274 134 l42 34 78 -11 c211 -33 445 38 594 179
268 252 146 625 -247 757 -68 23 -100 27 -220 30 -96 3 -159 -1 -200 -10z
m-18 -428 c39 -36 30 -99 -18 -123 -40 -21 -57 -19 -90 14 -34 35 -37 68 -8
105 27 34 82 36 116 4z m262 -4 c27 -35 26 -66 -2 -100 -17 -20 -33 -27 -57
-27 -24 0 -40 7 -57 27 -28 34 -29 65 -2 100 16 20 29 26 59 26 30 0 43 -6 59
-26z m250 9 c34 -29 37 -75 9 -108 -34 -38 -82 -39 -115 -1 -28 34 -29 65 -2
100 25 31 76 35 108 9z"/>
<path d="M5734 5257 c1 -92 0 -95 -46 -189 -39 -78 -60 -107 -125 -169 -89
-85 -195 -145 -319 -181 -65 -19 -103 -23 -221 -23 -79 0 -143 -3 -143 -7 0
-18 69 -82 136 -128 108 -72 208 -102 360 -108 71 -2 143 0 173 7 l53 11 46
-41 c49 -43 186 -114 240 -125 l33 -7 -40 74 c-21 41 -45 97 -52 126 l-13 52
72 66 c236 219 192 540 -99 708 -25 15 -48 27 -51 27 -2 0 -4 -42 -4 -93z"/>
<path d="M5715 3285 c-30 -29 -33 -83 -7 -113 32 -37 302 -212 327 -212 40 0
79 41 79 84 0 46 -6 51 -174 170 -150 107 -181 116 -225 71z"/>
<path d="M5574 3100 c-30 -12 -54 -49 -54 -82 0 -38 27 -64 184 -178 152 -110
178 -119 221 -75 30 29 33 83 8 113 -20 21 -265 202 -300 221 -25 13 -30 13
-59 1z"/>
<path d="M5424 2880 c-57 -23 -71 -100 -26 -142 33 -31 238 -181 269 -197 68
-35 144 61 99 125 -11 16 -139 113 -265 200 -25 18 -54 23 -77 14z"/>
<path d="M5269 2657 c-18 -14 -135 -160 -149 -187 -5 -10 -7 -26 -4 -34 5 -14
32 -16 191 -16 108 0 192 4 204 10 12 7 19 21 19 40 0 25 -15 41 -106 115
-107 86 -126 95 -155 72z"/>
</g>
</svg>
